<svg width="14" height="10" viewBox="0 0 14 10" fill="none" xmlns="http://www.w3.org/2000/svg">
<path d="M13.6668 1.61301L12.7268 0.673008L10.8268 2.81301C9.4535 1.26634 7.5535 0.333008 5.40683 0.333008C3.48016 0.333008 1.7135 1.10634 0.333496 2.33301L1.28016 3.27967C2.4135 2.28634 3.84683 1.66634 5.40683 1.66634C7.2335 1.66634 8.80016 2.50634 9.92016 3.82634L8.00016 5.98634L5.3335 3.31967L0.333496 8.32634L1.3335 9.32634L5.3335 5.31967L8.00016 7.98634L10.7002 4.95301C11.2002 5.85301 11.5335 6.88634 11.6602 7.98634H13.0002C12.8535 6.45301 12.3668 5.05967 11.6402 3.89301L13.6668 1.61301Z" fill="white"/>
</svg>
